<?xml version="1.0" standalone="no"?>
<!DOCTYPE svg PUBLIC "-//W3C//DTD SVG 20010904//EN"
 "http://www.w3.org/TR/2001/REC-SVG-20010904/DTD/svg10.dtd">
<svg version="1.0" xmlns="http://www.w3.org/2000/svg"
 width="512.000000pt" height="512.000000pt" viewBox="0 0 512.000000 512.000000"
 preserveAspectRatio="xMidYMid meet">

<g transform="translate(0.000000,512.000000) scale(0.100000,-0.100000)"
fill="#000000" stroke="none">
<path d="M2351 4469 c-47 -5 -136 -21 -199 -35 -578 -130 -1047 -496 -1312
-1026 -155 -310 -226 -698 -189 -1036 49 -452 239 -853 553 -1168 348 -347
789 -540 1286 -561 231 -9 466 25 690 102 102 34 260 104 260 114 0 3 -9 29
-19 57 -11 28 -24 86 -31 130 -40 297 148 581 445 670 96 29 249 24 349 -10
44 -15 83 -23 87 -19 14 15 98 222 123 304 251 824 -67 1705 -785 2176 -366
240 -816 348 -1258 302z m153 -450 c66 -11 123 -22 125 -25 2 -2 -13 -99 -34
-214 -20 -116 -36 -213 -33 -215 6 -6 158 -35 184 -35 19 0 24 16 59 216 37
203 40 215 60 210 11 -2 67 -12 124 -22 60 -10 105 -23 108 -31 3 -7 -12 -105
-32 -218 -21 -113 -36 -207 -34 -209 2 -1 42 -12 89 -24 202 -52 359 -163 422
-299 27 -58 33 -82 36 -162 10 -212 -69 -365 -228 -444 l-66 -34 55 -29 c83
-43 165 -125 203 -201 28 -57 33 -79 36 -159 9 -200 -76 -416 -202 -516 -116
-92 -218 -122 -416 -122 -74 0 -168 6 -209 12 -49 8 -77 9 -81 3 -3 -6 -23
-106 -44 -223 -21 -117 -40 -216 -42 -219 -3 -6 -253 36 -260 44 -2 2 15 104
37 226 32 171 39 225 29 231 -14 9 -189 35 -194 29 -2 -2 -22 -102 -44 -222
-22 -120 -42 -220 -45 -223 -4 -4 -247 35 -255 41 -1 1 16 104 39 229 22 125
39 229 37 231 -3 3 -413 80 -485 91 -24 4 -43 12 -43 18 0 19 50 279 54 283 2
2 51 -5 109 -16 125 -23 165 -17 214 35 37 40 24 -16 144 639 58 324 89 514
85 539 -10 84 -59 120 -199 148 -100 20 -108 23 -103 42 3 12 14 77 26 146 12
68 23 127 26 129 2 3 123 -16 269 -41 234 -40 265 -43 269 -29 3 9 19 93 36
186 39 220 41 225 47 225 3 0 60 -9 127 -21z"/>
<path d="M2449 3002 c-28 -155 -42 -259 -37 -263 12 -8 190 -37 278 -45 88 -8
202 11 264 44 89 48 134 159 106 261 -21 81 -113 156 -246 201 -62 22 -249 60
-292 60 l-27 0 -46 -258z"/>
<path d="M2350 2463 c0 -4 -23 -133 -50 -287 -28 -153 -49 -280 -47 -282 1 -2
57 -13 122 -26 94 -17 157 -22 285 -23 148 0 171 3 221 23 104 42 159 120 159
227 0 139 -96 232 -306 298 -121 38 -384 86 -384 70z"/>
</g>
</svg>
