<svg width="108" height="26" viewBox="0 0 108 26" fill="none" xmlns="http://www.w3.org/2000/svg">
<path fill-rule="evenodd" clip-rule="evenodd" d="M26 13C26 20.1797 20.1797 26 13 26C5.8203 26 0 20.1797 0 13C0 5.8203 5.8203 0 13 0C20.1797 0 26 5.8203 26 13ZM13.3236 21.5263C13.4323 20.9312 13.5374 20.3562 13.6324 19.7813C14.0565 19.7586 14.4626 19.7503 14.8584 19.7423C15.4 19.7312 15.9222 19.7205 16.4443 19.6741C17.9507 19.4328 18.9048 18.3607 19.2061 16.6988C19.4822 15.1174 19.1056 14.2596 17.6997 13.2679C17.6871 13.2545 17.6808 13.2344 17.6714 13.2042C17.662 13.1741 17.6495 13.1339 17.6243 13.0802C18.9048 12.5174 19.3065 11.3916 19.2563 10.0246C19.181 8.65757 18.3022 7.93386 17.2478 7.42458C17.015 7.31585 16.7653 7.20712 16.5037 7.09317C16.3138 7.01049 16.1177 6.92506 15.9171 6.83489C15.9917 6.41384 16.0618 5.99278 16.1312 5.57583C16.2253 5.01069 16.3181 4.45309 16.4192 3.91324C16.1431 3.85963 15.892 3.80603 15.6409 3.75242C15.3899 3.69881 15.1388 3.6452 14.8626 3.59159C14.7748 4.07406 14.6932 4.54984 14.6116 5.02561C14.53 5.50139 14.4484 5.97716 14.3605 6.45963C14.1776 6.42517 14.0085 6.39071 13.8394 6.35625C13.614 6.3103 13.3885 6.26435 13.1303 6.2184C13.2023 5.81183 13.2701 5.40976 13.3372 5.0122C13.4337 4.43999 13.5287 3.8771 13.6324 3.32355C13.0047 3.18953 12.4775 3.08231 11.9 2.9751C11.8415 3.30563 11.7829 3.63319 11.7243 3.96074C11.6072 4.61601 11.49 5.27127 11.3728 5.95036C11.0262 5.87987 10.6877 5.80937 10.3537 5.73983C9.67185 5.59783 9.00904 5.45981 8.33491 5.33386C8.20938 5.97716 8.10895 6.51324 8.00853 7.12974C8.21833 7.16174 8.41918 7.20328 8.61109 7.24298C8.7407 7.26979 8.86623 7.29575 8.98768 7.31736C9.66556 7.42458 9.91663 7.85345 9.7911 8.55035C9.59024 9.72974 9.38311 10.9091 9.17598 12.0885C8.96885 13.2679 8.76173 14.4473 8.56087 15.6266C8.48555 16.1895 8.20938 16.3236 7.73235 16.2431C6.62767 16.0823 6.62766 16.0823 6.25107 17.1813L6.25104 17.1814C6.17573 17.4494 6.10042 17.7174 6 18.0926C6.53982 18.1998 7.06082 18.3071 7.58181 18.4143C8.10274 18.5215 8.62367 18.6287 9.16343 18.7359C9.04454 19.3547 8.94324 19.9454 8.84391 20.5245C8.77544 20.9237 8.7079 21.3174 8.63619 21.7112C8.93747 21.7782 9.21992 21.8318 9.50237 21.8854C9.78482 21.939 10.0673 21.9926 10.3685 22.0596C10.4253 21.7393 10.4821 21.4246 10.538 21.1146C10.6552 20.4647 10.7687 19.8354 10.8707 19.2184C11.1289 19.2644 11.3544 19.3103 11.5798 19.3563C11.7489 19.3907 11.918 19.4252 12.1009 19.4596C12.0388 19.81 11.9799 20.1503 11.9218 20.4853C11.8156 21.0986 11.7124 21.6941 11.5988 22.3009C11.811 22.3421 12.0085 22.3793 12.2011 22.4157C12.5096 22.4739 12.8057 22.5297 13.1303 22.5957C13.1951 22.2296 13.26 21.8745 13.3236 21.5263ZM11.6374 15.0282C11.7417 14.4439 11.846 13.8596 11.9503 13.2411C12.253 13.3357 12.5535 13.4233 12.8512 13.5101C13.5659 13.7185 14.2644 13.9222 14.9379 14.206C15.7916 14.5813 16.118 15.305 15.9673 16.0823C15.8167 16.806 15.3145 17.3153 14.3856 17.3421C13.6818 17.3604 12.9898 17.2911 12.2774 17.2196C11.9478 17.1866 11.6139 17.1531 11.2724 17.1277C11.3941 16.3916 11.5157 15.7099 11.6374 15.0282ZM13.1393 11.7903C12.8431 11.7617 12.5395 11.7323 12.2264 11.7132C12.4524 10.4535 12.6281 9.40809 12.829 8.2019C13.1109 8.29311 13.3929 8.37501 13.6718 8.45605C14.2126 8.61316 14.7423 8.76702 15.2392 8.97922C15.9673 9.30087 16.2686 9.97097 16.1431 10.6947C16.0175 11.3916 15.5154 11.8473 14.6869 11.8741C14.1859 11.8913 13.6745 11.8419 13.1393 11.7903Z" fill="#C0CCDA"/>
<path d="M27.6841 5.60264C27.6841 4.18202 28.7386 3.10986 30.3705 3.10986C32.0024 3.10986 33.0569 4.12842 33.0569 5.52223C33.0569 6.99646 32.0024 8.09543 30.3705 8.09543C28.7637 8.09543 27.6841 7.02326 27.6841 5.60264ZM28.1862 9.56966H32.5799V22.9717H28.1862V9.56966Z" fill="#C0CCDA"/>
<path d="M43.5012 22.4354C42.748 22.9447 41.5931 23.2127 40.4382 23.2127C37.2246 23.2127 35.3416 21.524 35.3416 18.0931V13.59H33.5088V10.0787H35.3416V6.59415H39.7352V10.0787H42.5974V13.59H39.7352V18.0395C39.7352 19.0313 40.2625 19.5673 41.0659 19.5673C41.5429 19.5673 42.0451 19.4065 42.3965 19.1385L43.5012 22.4354Z" fill="#C0CCDA"/>
<path d="M57.9626 15.3055V22.9715H53.5689V16.0828C53.5689 14.1529 52.7906 13.3488 51.5102 13.3488C50.1042 13.3488 48.9995 14.287 48.9995 16.5117V22.9983H44.6058V9.59625H48.7986V11.0437C49.8029 9.94471 51.2089 9.35501 52.7906 9.35501C55.703 9.35501 57.9626 11.1509 57.9626 15.3055Z" fill="#C0CCDA"/>
<path d="M59.5443 16.2437C59.5443 12.2231 62.532 9.35501 66.6244 9.35501C70.767 9.35501 73.7044 12.2231 73.7044 16.2437C73.7044 20.2911 70.767 23.1859 66.6244 23.1859C62.5069 23.1859 59.5443 20.3179 59.5443 16.2437ZM69.2606 16.2437C69.2606 14.2066 68.1308 13.0808 66.6244 13.0808C65.1431 13.0808 63.9882 14.2066 63.9882 16.2437C63.9882 18.3076 65.1431 19.4602 66.6244 19.4602C68.1308 19.4602 69.2606 18.3076 69.2606 16.2437Z" fill="#C0CCDA"/>
<path d="M88.0151 9.56934L82.8432 22.9714H78.2989L73.127 9.56934H77.6461L80.6589 17.7446L83.8224 9.56934H88.0151Z" fill="#C0CCDA"/>
<path d="M87.4377 16.2437C87.4377 12.2231 90.4254 9.35501 94.5178 9.35501C98.6604 9.35501 101.598 12.2231 101.598 16.2437C101.598 20.2911 98.6604 23.1859 94.5178 23.1859C90.4254 23.1859 87.4377 20.3179 87.4377 16.2437ZM97.154 16.2437C97.154 14.2066 96.0242 13.0808 94.5178 13.0808C93.0365 13.0808 91.8816 14.2066 91.8816 16.2437C91.8816 18.3076 93.0365 19.4602 94.5178 19.4602C96.0242 19.4602 97.154 18.3076 97.154 16.2437Z" fill="#C0CCDA"/>
<path d="M105.339 23.1053C106.808 23.1053 108 21.8333 108 20.2641C108 18.6949 106.808 17.4229 105.339 17.4229C103.869 17.4229 102.677 18.6949 102.677 20.2641C102.677 21.8333 103.869 23.1053 105.339 23.1053Z" fill="#C0CCDA"/>
</svg>
