<svg width="49" height="8" viewBox="0 0 49 8" fill="none" xmlns="http://www.w3.org/2000/svg">
<path d="M0 6.11423V0.257529H2.61146C3.2848 0.257529 3.80346 0.407061 4.16742 0.706127C4.53139 0.999654 4.71337 1.40948 4.71337 1.93562C4.71337 2.45068 4.53139 2.86051 4.16742 3.16511C3.80346 3.46417 3.2848 3.61371 2.61146 3.61371H0.755232V6.11423H0ZM0.755232 3.0405H2.53867C3.00576 3.0405 3.3576 2.94358 3.59418 2.74974C3.83682 2.5559 3.95814 2.28453 3.95814 1.93562C3.95814 1.58117 3.83682 1.30703 3.59418 1.11319C3.3576 0.919349 3.00576 0.82243 2.53867 0.82243H0.755232V3.0405Z" fill="#C0CCDA"/>
<path d="M7.51507 6.18899C7.07831 6.18899 6.69614 6.10315 6.36857 5.93146C6.04707 5.75424 5.79836 5.50502 5.62244 5.1838C5.44652 4.85704 5.35856 4.47214 5.35856 4.02908C5.35856 3.58048 5.44652 3.19557 5.62244 2.87435C5.79836 2.55313 6.04707 2.30668 6.36857 2.13499C6.69614 1.95777 7.07831 1.86916 7.51507 1.86916C7.9579 1.86916 8.34006 1.95777 8.66156 2.13499C8.98914 2.30668 9.24088 2.55313 9.4168 2.87435C9.59878 3.19557 9.68977 3.58048 9.68977 4.02908C9.68977 4.47214 9.59878 4.85704 9.4168 5.1838C9.24088 5.50502 8.98914 5.75424 8.66156 5.93146C8.34006 6.10315 7.9579 6.18899 7.51507 6.18899ZM7.51507 5.64071C7.95183 5.64071 8.2976 5.50502 8.55237 5.23364C8.80715 4.95673 8.93454 4.55521 8.93454 4.02908C8.93454 3.4974 8.80412 3.09588 8.54328 2.82451C8.2885 2.54759 7.94576 2.40914 7.51507 2.40914C7.08437 2.40914 6.74164 2.54759 6.48686 2.82451C6.23208 3.09588 6.1047 3.4974 6.1047 4.02908C6.1047 4.55521 6.23208 4.95673 6.48686 5.23364C6.74164 5.50502 7.08437 5.64071 7.51507 5.64071Z" fill="#C0CCDA"/>
<path d="M11.996 6.11423L10.3035 1.94393H11.0861L12.4964 5.61578H12.2599L13.7157 1.94393H14.3527L15.7812 5.61578H15.5538L16.9732 1.94393H17.7194L16.0178 6.11423H15.3081L13.834 2.38422H14.198L12.7148 6.11423H11.996Z" fill="#C0CCDA"/>
<path d="M20.6521 6.18899C19.9363 6.18899 19.3721 6.00069 18.9596 5.62409C18.5471 5.24195 18.3409 4.71305 18.3409 4.03738C18.3409 3.59986 18.4319 3.22049 18.6139 2.89927C18.7958 2.57252 19.0506 2.32053 19.3782 2.1433C19.7058 1.96054 20.0819 1.86916 20.5065 1.86916C20.9251 1.86916 21.2769 1.94946 21.562 2.11007C21.8471 2.27068 22.0655 2.50052 22.2171 2.79958C22.3688 3.09311 22.4446 3.44202 22.4446 3.84631V4.09553H18.905V3.67186H21.9624L21.8077 3.77985C21.8077 3.33679 21.6985 2.99065 21.4801 2.74143C21.2617 2.49221 20.9372 2.3676 20.5065 2.3676C20.0515 2.3676 19.6967 2.51437 19.4419 2.80789C19.1871 3.09588 19.0597 3.48633 19.0597 3.97923V4.054C19.0597 4.57459 19.1992 4.97058 19.4783 5.24195C19.7634 5.50779 20.1607 5.64071 20.6703 5.64071C20.9433 5.64071 21.198 5.60471 21.4346 5.53271C21.6773 5.45517 21.9078 5.33056 22.1261 5.15888L22.3809 5.6324C22.1807 5.80962 21.926 5.94808 21.6166 6.04777C21.3133 6.14192 20.9918 6.18899 20.6521 6.18899Z" fill="#C0CCDA"/>
<path d="M23.5542 6.11423V2.94912C23.5542 2.78297 23.5482 2.61405 23.536 2.44237C23.53 2.27068 23.5178 2.10453 23.4996 1.94393H24.2094L24.3004 2.95743L24.173 2.96573C24.2336 2.71651 24.3398 2.5116 24.4914 2.35099C24.6431 2.19038 24.822 2.07131 25.0283 1.99377C25.2345 1.9107 25.4499 1.86916 25.6743 1.86916C25.7653 1.86916 25.8442 1.87193 25.9109 1.87747C25.9837 1.883 26.0504 1.89685 26.1111 1.919L26.102 2.51713C26.011 2.48944 25.9261 2.47283 25.8472 2.46729C25.7744 2.45621 25.6895 2.45068 25.5924 2.45068C25.3255 2.45068 25.092 2.50883 24.8918 2.62513C24.6977 2.74143 24.5491 2.89097 24.4459 3.07373C24.3489 3.25649 24.3004 3.45033 24.3004 3.65524V6.11423H23.5542Z" fill="#C0CCDA"/>
<path d="M28.8538 6.18899C28.138 6.18899 27.5738 6.00069 27.1613 5.62409C26.7488 5.24195 26.5426 4.71305 26.5426 4.03738C26.5426 3.59986 26.6336 3.22049 26.8156 2.89927C26.9975 2.57252 27.2523 2.32053 27.5799 2.1433C27.9075 1.96054 28.2836 1.86916 28.7082 1.86916C29.1268 1.86916 29.4786 1.94946 29.7637 2.11007C30.0488 2.27068 30.2672 2.50052 30.4188 2.79958C30.5705 3.09311 30.6463 3.44202 30.6463 3.84631V4.09553H27.1067V3.67186H30.1641L30.0094 3.77985C30.0094 3.33679 29.9002 2.99065 29.6818 2.74143C29.4634 2.49221 29.1389 2.3676 28.7082 2.3676C28.2532 2.3676 27.8984 2.51437 27.6436 2.80789C27.3888 3.09588 27.2614 3.48633 27.2614 3.97923V4.054C27.2614 4.57459 27.4009 4.97058 27.68 5.24195C27.9651 5.50779 28.3624 5.64071 28.872 5.64071C29.145 5.64071 29.3997 5.60471 29.6363 5.53271C29.879 5.45517 30.1095 5.33056 30.3278 5.15888L30.5826 5.6324C30.3824 5.80962 30.1277 5.94808 29.8183 6.04777C29.515 6.14192 29.1935 6.18899 28.8538 6.18899Z" fill="#C0CCDA"/>
<path d="M33.503 6.18899C33.1026 6.18899 32.7508 6.10315 32.4475 5.93146C32.1441 5.75424 31.9076 5.50502 31.7377 5.1838C31.5739 4.86258 31.492 4.47767 31.492 4.02908C31.492 3.57494 31.5739 3.18726 31.7377 2.86604C31.9076 2.54483 32.1441 2.29837 32.4475 2.12669C32.7508 1.955 33.1026 1.86916 33.503 1.86916C33.9155 1.86916 34.2703 1.96331 34.5676 2.15161C34.8709 2.33991 35.0741 2.59467 35.1772 2.91589H35.068V0H35.805V6.11423H35.0771V5.11734H35.1772C35.0802 5.44964 34.88 5.7127 34.5767 5.90654C34.2734 6.09484 33.9155 6.18899 33.503 6.18899ZM33.6576 5.64071C34.0883 5.64071 34.4341 5.50502 34.695 5.23364C34.9558 4.95673 35.0862 4.55521 35.0862 4.02908C35.0862 3.4974 34.9558 3.09588 34.695 2.82451C34.4341 2.54759 34.0883 2.40914 33.6576 2.40914C33.227 2.40914 32.8812 2.54759 32.6203 2.82451C32.3656 3.09588 32.2382 3.4974 32.2382 4.02908C32.2382 4.55521 32.3656 4.95673 32.6203 5.23364C32.8812 5.50502 33.227 5.64071 33.6576 5.64071Z" fill="#C0CCDA"/>
<path d="M41.8956 6.18899C41.4831 6.18899 41.1282 6.09484 40.831 5.90654C40.5338 5.7127 40.3336 5.44964 40.2305 5.11734H40.3305V6.11423H39.6026V0H40.3396V2.91589H40.2305C40.3336 2.59467 40.5338 2.33991 40.831 2.15161C41.1282 1.96331 41.4831 1.86916 41.8956 1.86916C42.3081 1.86916 42.663 1.95777 42.9602 2.13499C43.2635 2.30668 43.4971 2.55313 43.6608 2.87435C43.8307 3.19557 43.9156 3.58048 43.9156 4.02908C43.9156 4.47767 43.8307 4.86258 43.6608 5.1838C43.491 5.50502 43.2544 5.75424 42.9511 5.93146C42.6539 6.10315 42.302 6.18899 41.8956 6.18899ZM41.7409 5.64071C42.1716 5.64071 42.5174 5.50502 42.7782 5.23364C43.0391 4.96227 43.1695 4.56075 43.1695 4.02908C43.1695 3.4974 43.0391 3.09588 42.7782 2.82451C42.5174 2.54759 42.1716 2.40914 41.7409 2.40914C41.3102 2.40914 40.9645 2.54759 40.7036 2.82451C40.4488 3.09588 40.3214 3.4974 40.3214 4.02908C40.3214 4.55521 40.4488 4.95673 40.7036 5.23364C40.9645 5.50502 41.3102 5.64071 41.7409 5.64071Z" fill="#C0CCDA"/>
<path d="M44.8144 8L44.6415 7.44341C44.9266 7.38248 45.1632 7.31049 45.3512 7.22741C45.5453 7.14988 45.7061 7.04465 45.8335 6.91173C45.9609 6.77882 46.0701 6.61267 46.1611 6.41329L46.3976 5.92316L46.3794 6.20561L44.3867 1.94393H45.1874L46.8344 5.60748H46.5978L48.2266 1.94393H49L46.889 6.46314C46.7677 6.72897 46.6342 6.9505 46.4886 7.12773C46.343 7.31049 46.1853 7.45725 46.0155 7.56802C45.8517 7.68432 45.6697 7.7757 45.4695 7.84216C45.2693 7.90862 45.051 7.96123 44.8144 8Z" fill="#C0CCDA"/>
</svg>
